# xmcd CD database file
#
# Track frame offsets:
#	187
#	20247
#	41160
#	66060
#	92747
#	105972
#	128060
#	154010
#	176060
#	197560
#	218060
#
# Disc length: 3203 seconds
#
# Revision: 0
# Processed by: cddbd v1.5.1PL2 Copyright (c) Steve Scherf et al.
# Submitted via: CDex 1.51
#
DISCID=920c810b
DTITLE=川中茂則 - A MAN IN THE MIRROR
DYEAR=1994
DGENRE=JazzRock
TTITLE0=[SONG X] A MAN IN THE MIRROR
TTITLE1=[SONG T] FILL YOUR SAILS
TTITLE2=[SONG C-2] DECEMBER RAIN
TTITLE3=[SONG A] THROUGH MY SHADOW
TTITLE4=[SONG H] TOKYO CAGE
TTITLE5=[SONG D] DISCOVER
TTITLE6=[SONG S] SIGNING IN THE AIR
TTITLE7=[SONG W] YOU CAN'T STOP THE RAIN
TTITLE8=[SONG F] ONE MORE NIGHT
TTITLE9=[SONG A-2] STANDING CLOSE TO THE MOON
TTITLE10=[SONG R] WHY DO THE STAR FALL DOWN
EXTD=YEAR: 1994
EXTT0=
EXTT1=
EXTT2=
EXTT3=
EXTT4=
EXTT5=
EXTT6=
EXTT7=
EXTT8=
EXTT9=
EXTT10=
PLAYORDER=
